<svg width="512" height="367" viewBox="0 0 512 367" fill="none" xmlns="http://www.w3.org/2000/svg">
<rect y="324.528" width="286.64" height="58.9722" rx="18.5844" transform="rotate(-45 0 324.528)" fill="#F04452"/>
<rect x="276.16" y="277.903" width="161.893" height="58.9722" rx="18.5844" transform="rotate(-135 276.16 277.903)" fill="#F04452"/>
<rect x="234.163" y="236.203" width="290.789" height="58.9722" rx="18.5844" transform="rotate(-45 234.163 236.203)" fill="#F04452"/>
<path d="M498.422 0.00488281C498.661 0.0109436 498.898 0.0230501 499.134 0.0410156C499.606 0.0769261 500.071 0.136054 500.529 0.217773C500.758 0.258648 500.985 0.304548 501.21 0.356445C501.659 0.460213 502.1 0.586337 502.532 0.732422C502.856 0.842025 503.174 0.963429 503.487 1.0957C504.737 1.62464 505.895 2.33057 506.927 3.18262C507.1 3.32472 507.268 3.47103 507.433 3.62109C507.681 3.84599 507.92 4.07933 508.151 4.32129C508.305 4.48272 508.455 4.64775 508.601 4.81641C509.039 5.32227 509.442 5.86012 509.804 6.42578C509.925 6.6141 510.041 6.80563 510.153 7C510.209 7.09735 510.264 7.19514 510.318 7.29395C510.533 7.68901 510.729 8.09572 510.905 8.5127C510.993 8.72103 511.076 8.93214 511.154 9.14551C511.232 9.35899 511.306 9.57474 511.374 9.79297C511.408 9.90207 511.44 10.0118 511.471 10.1221C511.534 10.3425 511.591 10.5653 511.643 10.79C511.877 11.8017 512 12.8558 512 13.9385V111.506C512 119.204 505.76 125.444 498.062 125.444C494.204 125.444 490.712 123.877 488.188 121.344C488.183 121.338 488.177 121.333 488.172 121.328L390.836 23.9922C390.804 23.9602 390.772 23.9277 390.741 23.8955C388.158 21.3656 386.555 17.8394 386.555 13.9385C386.555 6.24057 392.796 0 400.494 0H498.062C498.182 4.11785e-06 498.302 0.00185611 498.422 0.00488281Z" fill="#F04452"/>
</svg>
