<svg width="513" height="512" viewBox="0 0 513 512" fill="none" xmlns="http://www.w3.org/2000/svg">
<circle cx="199.822" cy="312.178" r="30.5778" fill="#3182F7"/>
<path d="M199.111 201.956C216.386 201.956 232.738 205.905 247.315 212.949L223.284 236.98C215.66 234.554 207.539 233.245 199.111 233.245C155.125 233.245 119.467 268.903 119.467 312.889C119.467 356.875 155.125 392.534 199.111 392.534C243.098 392.534 278.756 356.875 278.756 312.889C278.756 304.212 277.367 295.859 274.802 288.04L298.758 264.084C305.985 278.813 310.045 295.376 310.045 312.889C310.045 374.156 260.378 423.823 199.111 423.823C137.845 423.823 88.1778 374.156 88.1777 312.889C88.1777 251.622 137.845 201.956 199.111 201.956Z" fill="#3182F7"/>
<path d="M199.111 113.778C240.876 113.778 279.635 126.639 311.65 148.614L289.071 171.193C263.071 154.651 232.211 145.067 199.111 145.067C106.426 145.067 31.2891 220.203 31.2891 312.889C31.2891 405.575 106.426 480.711 199.111 480.711C291.797 480.711 366.934 405.575 366.934 312.889C366.934 279.557 357.216 248.495 340.46 222.381L363.023 199.819C385.22 231.935 398.223 270.894 398.223 312.889C398.223 422.855 309.077 512 199.111 512C89.1453 512 4.94925e-05 422.855 0 312.889C0 202.923 89.1452 113.778 199.111 113.778Z" fill="#3182F7"/>
<rect x="206.222" y="282.902" width="240.045" height="32.7111" transform="rotate(-45 206.222 282.902)" fill="#3182F7"/>
<rect x="366.205" y="122.225" width="78.1605" height="31.7382" rx="9.95556" transform="rotate(6.22068 366.205 122.225)" fill="#3182F7"/>
<rect x="366.205" y="122.225" width="78.1605" height="31.7382" rx="9.95556" transform="rotate(6.22068 366.205 122.225)" fill="#3182F7"/>
<rect x="382.913" y="69.6887" width="78.1605" height="31.7382" rx="9.95556" transform="rotate(85.1313 382.913 69.6887)" fill="#3182F7"/>
<rect x="409.6" y="143.445" width="113.784" height="31.7382" rx="15.8691" transform="rotate(-45 409.6 143.445)" fill="#3182F7"/>
<rect width="114.823" height="31.5842" rx="15.7921" transform="matrix(0.707107 -0.707107 -0.707107 -0.707107 368.103 103.526)" fill="#3182F7"/>
<rect x="421.15" y="61.1555" width="87.1938" height="31.7382" rx="15.8691" transform="rotate(5.45396 421.15 61.1555)" fill="#3182F7"/>
<rect width="86.7707" height="31.5842" rx="15.7921" transform="matrix(-0.0950459 -0.995473 -0.995473 0.0950459 451.12 90.9058)" fill="#3182F7"/>
</svg>
